<svg width="521px" height="521px" version="1.1" baseProfile="full" xmlns="http://www.w3.org/2000/svg" xmlns:xlink="http://www.w3.org/1999/xlink" xmlns:ev="http://www.w3.org/2001/xml-events"><polygon fill="rgb(228,119,25)" stroke="rgb(228,119,25)" points="312.0426272749901,300.19641494750977 247.6544196009636,304.19256591796875 224.03799575567245,247.30640602111816"></polygon><polygon fill="rgb(228,119,25)" stroke="rgb(228,119,25)" points="524.0330269932747,248.59649848937988 500.3614301085472,305.5912742614746 434.40210604667664,300.8620948791504"></polygon><polygon fill="rgb(228,119,25)" stroke="rgb(228,119,25)" points="224.03799575567245,247.30640602111816 278.9820615053177,263.59947395324707 312.0426272749901,300.19641494750977"></polygon><polygon fill="rgb(228,119,25)" stroke="rgb(228,119,25)" points="434.40210604667664,300.8620948791504 467.1128357350826,264.4741401672363 524.0330269932747,248.59649848937988"></polygon><polygon fill="rgb(247,132,25)" stroke="rgb(247,132,25)" points="285.43576338887215,211.99540758132935 224.03799575567245,247.30640602111816 240.10257917642593,189.37726002931595"></polygon><polygon fill="rgb(247,132,25)" stroke="rgb(247,132,25)" points="278.9820615053177,263.59947395324707 224.03799575567245,247.30640602111816 285.43576338887215,211.99540758132935"></polygon><polygon fill="rgb(247,132,25)" stroke="rgb(247,132,25)" points="460.57938373088837,212.61324405670166 507.38622868061066,190.1896072626114 524.0330269932747,248.59649848937988"></polygon><polygon fill="rgb(247,132,25)" stroke="rgb(247,132,25)" points="460.57938373088837,212.61324405670166 524.0330269932747,248.59649848937988 467.1128357350826,264.4741401672363"></polygon><polygon fill="rgb(119,57,0)" stroke="rgb(119,57,0)" points="240.10257917642593,189.37726002931595 280.94070997834206,159.77273082733154 303.9248675107956,169.95309734344482"></polygon><polygon fill="rgb(119,57,0)" stroke="rgb(119,57,0)" points="230.51314824819565,169.15926361083984 280.94070997834206,159.77273082733154 240.10257917642593,189.37726002931595"></polygon><polygon fill="rgb(119,57,0)" stroke="rgb(119,57,0)" points="507.38622868061066,190.1896072626114 443.1014955341816,170.31680488586426 466.5973579287529,160.21708488464355"></polygon><polygon fill="rgb(119,57,0)" stroke="rgb(119,57,0)" points="230.51314824819565,169.15926361083984 226.98521691560745,154.20054817199707 280.94070997834206,159.77273082733154"></polygon><polygon fill="rgb(119,57,0)" stroke="rgb(119,57,0)" points="280.94070997834206,159.77273082733154 226.98521691560745,154.20054817199707 222.64371174573898,141.70254707336426"></polygon><polygon fill="rgb(119,57,0)" stroke="rgb(119,57,0)" points="517.0546517968178,169.90432691574097 507.38622868061066,190.1896072626114 466.5973579287529,160.21708488464355"></polygon><polygon fill="rgb(119,57,0)" stroke="rgb(119,57,0)" points="517.0546517968178,169.90432691574097 466.5973579287529,160.21708488464355 520.6336878538132,154.86860847473145"></polygon><polygon fill="rgb(119,57,0)" stroke="rgb(119,57,0)" points="466.5973579287529,160.21708488464355 525.0238679051399,142.30833435058594 520.6336878538132,154.86860847473145"></polygon><polygon fill="rgb(119,57,0)" stroke="rgb(119,57,0)" points="278.4629779458046,104.33413124084473 280.94070997834206,159.77273082733154 222.64371174573898,141.70254707336426"></polygon><polygon fill="rgb(119,57,0)" stroke="rgb(119,57,0)" points="303.9248675107956,169.95309734344482 280.94070997834206,159.77273082733154 278.4629779458046,104.33413124084473"></polygon><polygon fill="rgb(205,98,0)" stroke="rgb(205,98,0)" points="312.0426272749901,300.19641494750977 278.9820615053177,263.59947395324707 315.81494730710983,268.79163551330566"></polygon><polygon fill="rgb(119,57,0)" stroke="rgb(119,57,0)" points="525.0238679051399,142.30833435058594 466.5973579287529,160.21708488464355 468.2576317191124,104.559814453125"></polygon><polygon fill="rgb(119,57,0)" stroke="rgb(119,57,0)" points="468.2576317191124,104.559814453125 466.5973579287529,160.21708488464355 443.1014955341816,170.31680488586426"></polygon><polygon fill="rgb(205,98,0)" stroke="rgb(205,98,0)" points="434.40210604667664,300.8620948791504 429.64500856399536,269.33326721191406 467.1128357350826,264.4741401672363"></polygon><polygon fill="rgb(119,57,0)" stroke="rgb(119,57,0)" points="240.10257917642593,189.37726002931595 224.7115638256073,174.39919996261597 230.51314824819565,169.15926361083984"></polygon><polygon fill="rgb(119,57,0)" stroke="rgb(119,57,0)" points="507.38622868061066,190.1896072626114 517.0546517968178,169.90432691574097 522.8614302873611,175.2085247039795"></polygon><polygon fill="rgb(247,132,25)" stroke="rgb(247,132,25)" points="240.10257917642593,189.37726002931595 303.9248675107956,169.95309734344482 285.43576338887215,211.99540758132935"></polygon><polygon fill="rgb(119,57,0)" stroke="rgb(119,57,0)" points="230.51314824819565,169.15926361083984 219.88080197572708,161.1354217529297 226.98521691560745,154.20054817199707"></polygon><polygon fill="rgb(119,57,0)" stroke="rgb(119,57,0)" points="278.4629779458046,104.33413124084473 349.42143358290195,137.59810066223145 303.9248675107956,169.95309734344482"></polygon><polygon fill="rgb(247,132,25)" stroke="rgb(247,132,25)" points="507.38622868061066,190.1896072626114 460.57938373088837,212.61324405670166 443.1014955341816,170.31680488586426"></polygon><polygon fill="rgb(119,57,0)" stroke="rgb(119,57,0)" points="443.1014955341816,170.31680488586426 396.87439522892237,137.6886806488037 468.2576317191124,104.559814453125"></polygon><polygon fill="rgb(192,172,157)" stroke="rgb(192,172,157)" points="395.90645391494036,345.9422950744629 434.40210604667664,300.8620948791504 420.92975264787674,316.9314422607422"></polygon><polygon fill="rgb(119,57,0)" stroke="rgb(119,57,0)" points="517.0546517968178,169.90432691574097 520.6336878538132,154.86860847473145 527.7456821203232,161.88237476348877"></polygon><polygon fill="rgb(119,57,0)" stroke="rgb(119,57,0)" points="216.2937518954277,147.604811668396 222.64371174573898,141.70254707336426 226.98521691560745,154.20054817199707"></polygon><polygon fill="rgb(228,119,25)" stroke="rgb(228,119,25)" points="303.9248675107956,169.95309734344482 349.42143358290195,137.59810066223145 353.97845634818077,220.37064743041992"></polygon><polygon fill="rgb(228,119,25)" stroke="rgb(228,119,25)" points="353.97845634818077,220.37064743041992 285.43576338887215,211.99540758132935 303.9248675107956,169.95309734344482"></polygon><polygon fill="rgb(247,132,25)" stroke="rgb(247,132,25)" points="396.87439522892237,137.6886806488037 349.42143358290195,137.59810066223145 329.22322195768356,71.46730041503906"></polygon><polygon fill="rgb(247,132,25)" stroke="rgb(247,132,25)" points="329.22322195768356,71.46730041503906 418.1491178423166,71.50949478149414 396.87439522892237,137.6886806488037"></polygon><polygon fill="rgb(228,119,25)" stroke="rgb(228,119,25)" points="443.1014955341816,170.31680488586426 460.57938373088837,212.61324405670166 391.27412413060665,220.50879192352295"></polygon><polygon fill="rgb(228,119,25)" stroke="rgb(228,119,25)" points="391.27412413060665,220.50879192352295 396.87439522892237,137.6886806488037 443.1014955341816,170.31680488586426"></polygon><polygon fill="rgb(119,57,0)" stroke="rgb(119,57,0)" points="531.3835917115211,148.2766056060791 520.6336878538132,154.86860847473145 525.0238679051399,142.30833435058594"></polygon><polygon fill="rgb(214,194,178)" stroke="rgb(214,194,178)" points="347.1484381109476,342.3908386230469 347.82446667551994,345.6335105895996 312.0426272749901,300.19641494750977"></polygon><polygon fill="rgb(214,194,178)" stroke="rgb(214,194,178)" points="396.0269275903702,342.7012939453125 434.40210604667664,300.8620948791504 395.90645391494036,345.9422950744629"></polygon><polygon fill="rgb(214,194,178)" stroke="rgb(214,194,178)" points="312.0426272749901,300.19641494750977 349.8022808134556,320.9622344970703 347.1484381109476,342.3908386230469"></polygon><polygon fill="rgb(228,119,25)" stroke="rgb(228,119,25)" points="349.8022808134556,320.9622344970703 312.0426272749901,300.19641494750977 315.81494730710983,268.79163551330566"></polygon><polygon fill="rgb(214,194,178)" stroke="rgb(214,194,178)" points="434.40210604667664,300.8620948791504 396.0269275903702,342.7012939453125 393.2038973197341,321.21771240234375"></polygon><polygon fill="rgb(228,119,25)" stroke="rgb(228,119,25)" points="393.2038973197341,321.21771240234375 429.64500856399536,269.33326721191406 434.40210604667664,300.8620948791504"></polygon><polygon fill="rgb(119,57,0)" stroke="rgb(119,57,0)" points="222.64371174573898,141.70254707336426 207.4333072900772,94.88295364379883 278.4629779458046,104.33413124084473"></polygon><polygon fill="rgb(228,119,25)" stroke="rgb(228,119,25)" points="349.42143358290195,137.59810066223145 219.65221840143204,51.080509185791016 329.22322195768356,71.46730041503906"></polygon><polygon fill="rgb(119,57,0)" stroke="rgb(119,57,0)" points="468.2576317191124,104.559814453125 539.9570139050484,95.21057510375977 525.0238679051399,142.30833435058594"></polygon><polygon fill="rgb(225,119,25)" stroke="rgb(225,119,25)" points="526.9277836084366,51.09038543701172 396.87439522892237,137.6886806488037 418.1491178423166,71.50949478149414"></polygon><polygon fill="rgb(192,172,157)" stroke="rgb(192,172,157)" points="347.82446667551994,345.6335105895996 350.06487104296684,356.39479064941406 324.8708883821964,316.37524795532227"></polygon><polygon fill="rgb(247,132,25)" stroke="rgb(247,132,25)" points="285.43576338887215,211.99540758132935 315.81494730710983,268.79163551330566 278.9820615053177,263.59947395324707"></polygon><polygon fill="rgb(192,172,157)" stroke="rgb(192,172,157)" points="420.92975264787674,316.9314422607422 393.5767124146223,356.6843605041504 395.90645391494036,345.9422950744629"></polygon><polygon fill="rgb(247,132,25)" stroke="rgb(247,132,25)" points="467.1128357350826,264.4741401672363 429.64500856399536,269.33326721191406 460.57938373088837,212.61324405670166"></polygon><polygon fill="rgb(247,132,25)" stroke="rgb(247,132,25)" points="349.42143358290195,137.59810066223145 396.87439522892237,137.6886806488037 391.27412413060665,220.50879192352295"></polygon><polygon fill="rgb(247,132,25)" stroke="rgb(247,132,25)" points="391.27412413060665,220.50879192352295 353.97845634818077,220.37064743041992 349.42143358290195,137.59810066223145"></polygon><polygon fill="rgb(228,116,36)" stroke="rgb(228,116,36)" points="285.43576338887215,211.99540758132935 313.9974637925625,241.95639610290527 315.81494730710983,268.79163551330566"></polygon><polygon fill="rgb(228,116,36)" stroke="rgb(228,116,36)" points="460.57938373088837,212.61324405670166 429.64500856399536,269.33326721191406 431.5672595500946,242.4473476409912"></polygon><polygon fill="rgb(247,132,25)" stroke="rgb(247,132,25)" points="315.81494730710983,268.79163551330566 313.9974637925625,241.95639610290527 348.07505537569523,255.1955223083496"></polygon><polygon fill="rgb(205,98,0)" stroke="rgb(205,98,0)" points="313.9974637925625,241.95639610290527 285.43576338887215,211.99540758132935 353.97845634818077,220.37064743041992"></polygon><polygon fill="rgb(247,132,25)" stroke="rgb(247,132,25)" points="429.64500856399536,269.33326721191406 397.0571782141924,255.41397857666016 431.5672595500946,242.4473476409912"></polygon><polygon fill="rgb(205,98,0)" stroke="rgb(205,98,0)" points="391.27412413060665,220.50879192352295 460.57938373088837,212.61324405670166 431.5672595500946,242.4473476409912"></polygon><polygon fill="rgb(119,57,0)" stroke="rgb(119,57,0)" points="219.65221840143204,51.080509185791016 349.42143358290195,137.59810066223145 278.4629779458046,104.33413124084473"></polygon><polygon fill="rgb(36,51,67)" stroke="rgb(36,51,67)" points="348.07505537569523,255.1955223083496 313.9974637925625,241.95639610290527 337.8039782643318,232.50642013549805"></polygon><polygon fill="rgb(205,98,0)" stroke="rgb(205,98,0)" points="353.97845634818077,220.37064743041992 337.8039782643318,232.50642013549805 313.9974637925625,241.95639610290527"></polygon><polygon fill="rgb(119,57,0)" stroke="rgb(119,57,0)" points="468.2576317191124,104.559814453125 396.87439522892237,137.6886806488037 526.9277836084366,51.09038543701172"></polygon><polygon fill="rgb(36,51,67)" stroke="rgb(36,51,67)" points="397.0571782141924,255.41397857666016 407.58913184702396,232.78337287902832 431.5672595500946,242.4473476409912"></polygon><polygon fill="rgb(205,98,0)" stroke="rgb(205,98,0)" points="431.5672595500946,242.4473476409912 407.58913184702396,232.78337287902832 391.27412413060665,220.50879192352295"></polygon><polygon fill="rgb(119,57,0)" stroke="rgb(119,57,0)" points="278.4629779458046,104.33413124084473 207.4333072900772,94.88295364379883 219.65221840143204,51.080509185791016"></polygon><polygon fill="rgb(205,98,0)" stroke="rgb(205,98,0)" points="337.8039782643318,232.50642013549805 353.97845634818077,220.37064743041992 348.07505537569523,255.1955223083496"></polygon><polygon fill="rgb(205,98,0)" stroke="rgb(205,98,0)" points="407.58913184702396,232.78337287902832 397.0571782141924,255.41397857666016 391.27412413060665,220.50879192352295"></polygon><polygon fill="rgb(119,57,0)" stroke="rgb(119,57,0)" points="526.9277836084366,51.09038543701172 539.9570139050484,95.21057510375977 468.2576317191124,104.559814453125"></polygon><polygon fill="rgb(228,116,36)" stroke="rgb(228,116,36)" points="348.07505537569523,255.1955223083496 353.97845634818077,220.37064743041992 355.5703699067235,246.0849609375"></polygon><polygon fill="rgb(225,119,25)" stroke="rgb(225,119,25)" points="397.0571782141924,255.41397857666016 389.28782783448696,246.22865295410156 391.27412413060665,220.50879192352295"></polygon><polygon fill="rgb(247,132,25)" stroke="rgb(247,132,25)" points="349.8022808134556,320.9622344970703 315.81494730710983,268.79163551330566 348.07505537569523,255.1955223083496"></polygon><polygon fill="rgb(247,132,25)" stroke="rgb(247,132,25)" points="397.0571782141924,255.41397857666016 429.64500856399536,269.33326721191406 393.2038973197341,321.21771240234375"></polygon><polygon fill="rgb(247,132,25)" stroke="rgb(247,132,25)" points="355.5703699067235,246.0849609375 353.97845634818077,220.37064743041992 391.27412413060665,220.50879192352295"></polygon><polygon fill="rgb(247,132,25)" stroke="rgb(247,132,25)" points="391.27412413060665,220.50879192352295 389.28782783448696,246.22865295410156 355.5703699067235,246.0849609375"></polygon><polygon fill="rgb(228,116,36)" stroke="rgb(228,116,36)" points="355.5703699067235,246.0849609375 355.3459619283676,317.5892028808594 348.07505537569523,255.1955223083496"></polygon><polygon fill="rgb(247,132,25)" stroke="rgb(247,132,25)" points="348.07505537569523,255.1955223083496 355.3459619283676,317.5892028808594 349.8022808134556,320.9622344970703"></polygon><polygon fill="rgb(228,116,36)" stroke="rgb(228,116,36)" points="389.28782783448696,246.22865295410156 397.0571782141924,255.41397857666016 387.63872101157904,317.7769088745117"></polygon><polygon fill="rgb(247,132,25)" stroke="rgb(247,132,25)" points="393.2038973197341,321.21771240234375 387.63872101157904,317.7769088745117 397.0571782141924,255.41397857666016"></polygon><polygon fill="rgb(247,132,25)" stroke="rgb(247,132,25)" points="355.5703699067235,246.0849609375 389.28782783448696,246.22865295410156 387.63872101157904,317.7769088745117"></polygon><polygon fill="rgb(247,132,25)" stroke="rgb(247,132,25)" points="387.63872101157904,317.7769088745117 355.3459619283676,317.5892028808594 355.5703699067235,246.0849609375"></polygon><polygon fill="rgb(192,172,157)" stroke="rgb(192,172,157)" points="396.0269275903702,342.7012939453125 395.90645391494036,345.9422950744629 393.5767124146223,356.6843605041504"></polygon><polygon fill="rgb(192,172,157)" stroke="rgb(192,172,157)" points="347.1484381109476,342.3908386230469 349.82916513085365,343.0015296936035 350.06487104296684,356.39479064941406"></polygon><polygon fill="rgb(192,172,157)" stroke="rgb(192,172,157)" points="350.06487104296684,356.39479064941406 349.82916513085365,343.0015296936035 393.08502031862736,343.27684020996094"></polygon><polygon fill="rgb(192,172,157)" stroke="rgb(192,172,157)" points="393.08502031862736,343.27684020996094 393.5767124146223,356.6843605041504 350.06487104296684,356.39479064941406"></polygon><polygon fill="rgb(192,172,157)" stroke="rgb(192,172,157)" points="393.5767124146223,356.6843605041504 393.08502031862736,343.27684020996094 396.0269275903702,342.7012939453125"></polygon><polygon fill="rgb(0,0,0)" stroke="rgb(0,0,0)" points="349.82916513085365,343.0015296936035 347.1484381109476,342.3908386230469 349.8022808134556,320.9622344970703"></polygon><polygon fill="rgb(0,0,0)" stroke="rgb(0,0,0)" points="393.2038973197341,321.21771240234375 396.0269275903702,342.7012939453125 393.08502031862736,343.27684020996094"></polygon><polygon fill="rgb(0,0,0)" stroke="rgb(0,0,0)" points="349.8022808134556,320.9622344970703 351.3759872689843,331.57666397094727 349.82916513085365,343.0015296936035"></polygon><polygon fill="rgb(0,0,0)" stroke="rgb(0,0,0)" points="393.08502031862736,343.27684020996094 349.82916513085365,343.0015296936035 351.3759872689843,331.57666397094727"></polygon><polygon fill="rgb(0,0,0)" stroke="rgb(0,0,0)" points="393.08502031862736,343.27684020996094 391.14082411676645,331.81988525390625 393.2038973197341,321.21771240234375"></polygon><polygon fill="rgb(0,0,0)" stroke="rgb(0,0,0)" points="351.3759872689843,331.57666397094727 391.14082411676645,331.81988525390625 393.08502031862736,343.27684020996094"></polygon><polygon fill="rgb(0,0,0)" stroke="rgb(0,0,0)" points="349.8022808134556,320.9622344970703 355.3459619283676,317.5892028808594 354.88272435218096,328.1133613586426"></polygon><polygon fill="rgb(0,0,0)" stroke="rgb(0,0,0)" points="354.88272435218096,328.1133613586426 351.3759872689843,331.57666397094727 349.8022808134556,320.9622344970703"></polygon><polygon fill="rgb(0,0,0)" stroke="rgb(0,0,0)" points="393.2038973197341,321.21771240234375 391.14082411676645,331.81988525390625 387.6145549416542,328.311092376709"></polygon><polygon fill="rgb(0,0,0)" stroke="rgb(0,0,0)" points="387.6145549416542,328.311092376709 387.63872101157904,317.7769088745117 393.2038973197341,321.21771240234375"></polygon><polygon fill="rgb(0,0,0)" stroke="rgb(0,0,0)" points="354.88272435218096,328.1133613586426 355.3459619283676,317.5892028808594 387.63872101157904,317.7769088745117"></polygon><polygon fill="rgb(0,0,0)" stroke="rgb(0,0,0)" points="387.63872101157904,317.7769088745117 387.6145549416542,328.311092376709 354.88272435218096,328.1133613586426"></polygon><polygon fill="rgb(0,0,0)" stroke="rgb(0,0,0)" points="387.6145549416542,328.311092376709 391.14082411676645,331.81988525390625 351.3759872689843,331.57666397094727"></polygon><polygon fill="rgb(0,0,0)" stroke="rgb(0,0,0)" points="351.3759872689843,331.57666397094727 354.88272435218096,328.1133613586426 387.6145549416542,328.311092376709"></polygon></svg>